<svg width="33" height="32" viewBox="0 0 33 32" fill="none" xmlns="http://www.w3.org/2000/svg">
<g clip-path="url(#clip0_103_280)">
<path d="M31.73 14.5746L17.7585 0.603804C16.9544 -0.200821 15.6494 -0.200821 14.8442 0.603804L11.943 3.50505L15.6234 7.18543C16.4786 6.89643 17.4594 7.0903 18.1411 7.77205C18.8261 8.45818 19.0186 9.4473 18.7226 10.3053L22.2695 13.8523C23.1276 13.5567 24.1177 13.7479 24.8031 14.4344C25.761 15.3919 25.761 16.9438 24.8031 17.9019C23.845 18.8602 22.2931 18.8602 21.3345 17.9019C20.614 17.1807 20.436 16.1226 20.8007 15.2349L17.493 11.9272L17.4926 20.6318C17.7324 20.7504 17.9514 20.907 18.1411 21.0956C19.099 22.0531 19.099 23.6051 18.1411 24.5639C17.183 25.5217 15.6304 25.5217 14.6736 24.5639C13.7157 23.6051 13.7157 22.0532 14.6736 21.0957C14.9032 20.866 15.176 20.6841 15.4762 20.5606V11.7748C15.1755 11.652 14.9026 11.4701 14.6736 11.2397C13.9479 10.5149 13.7734 9.45005 14.1452 8.55893L10.5172 4.93055L0.937246 14.5099C0.132246 15.3153 0.132246 16.6204 0.937246 17.4252L14.909 31.3962C15.7134 32.2009 17.0181 32.2009 17.8235 31.3962L31.7299 17.4901C32.5346 16.6851 32.5347 15.3792 31.73 14.5746Z" fill="#DE4C36"/>
</g>
<defs>
<clipPath id="clip0_103_280">
<rect width="32" height="32" fill="white" transform="translate(0.333496)"/>
</clipPath>
</defs>
</svg>
