<svg width="40" height="40" viewBox="0 0 40 40" fill="none" xmlns="http://www.w3.org/2000/svg">
<path d="M33.75 16.25V17.5C33.7474 19.615 32.9796 21.6576 31.5884 23.2507C30.1972 24.8438 28.2766 25.8797 26.1812 26.1672C27.0365 27.2617 27.5008 28.611 27.5 30V36.25C27.5 36.5815 27.3683 36.8995 27.1339 37.1339C26.8995 37.3683 26.5815 37.5 26.25 37.5H16.25C15.9185 37.5 15.6005 37.3683 15.3661 37.1339C15.1317 36.8995 15 36.5815 15 36.25V33.75H11.25C9.5924 33.75 8.00268 33.0915 6.83058 31.9194C5.65848 30.7473 5 29.1576 5 27.5C5 26.5054 4.60491 25.5516 3.90165 24.8483C3.19839 24.1451 2.24456 23.75 1.25 23.75C0.918479 23.75 0.600537 23.6183 0.366117 23.3839C0.131696 23.1495 0 22.8315 0 22.5C0 22.1685 0.131696 21.8505 0.366117 21.6161C0.600537 21.3817 0.918479 21.25 1.25 21.25C2.07076 21.25 2.88349 21.4116 3.64177 21.7257C4.40006 22.0398 5.08905 22.5002 5.66942 23.0806C6.24978 23.6609 6.71016 24.3499 7.02425 25.1082C7.33834 25.8665 7.5 26.6792 7.5 27.5C7.5 28.4946 7.89509 29.4484 8.59835 30.1516C9.30161 30.8549 10.2554 31.25 11.25 31.25H15V30C14.9992 28.611 15.4635 27.2617 16.3188 26.1672C14.2234 25.8797 12.3028 24.8438 10.9116 23.2507C9.52042 21.6576 8.75263 19.615 8.75 17.5V16.25C8.76556 14.6965 9.17926 13.173 9.95156 11.825C9.56949 10.5925 9.44693 9.29418 9.59161 8.01195C9.73629 6.72972 10.1451 5.49137 10.7922 4.37499C10.9019 4.18492 11.0598 4.0271 11.2498 3.91739C11.4399 3.80768 11.6555 3.74994 11.875 3.74999C13.331 3.74694 14.7674 4.08447 16.0697 4.73559C17.372 5.38672 18.5039 6.3334 19.375 7.49999H23.125C23.9961 6.3334 25.128 5.38672 26.4303 4.73559C27.7325 4.08447 29.169 3.74694 30.625 3.74999C30.8445 3.74994 31.0601 3.80768 31.2502 3.91739C31.4402 4.0271 31.5981 4.18492 31.7078 4.37499C32.355 5.49134 32.7637 6.72976 32.9082 8.01205C33.0526 9.29434 32.9296 10.5926 32.5469 11.825C33.3206 13.1725 33.7349 14.6962 33.75 16.25Z" fill="#B6CFF0" fill-opacity="0.9"/>
</svg>
