<svg width="32" height="32" viewBox="0 0 32 32" fill="none" xmlns="http://www.w3.org/2000/svg">
<g clip-path="url(#clip0_103_180)">
<path d="M2.01476 1.05933L4.09162 27.6291C4.1228 28.028 4.39287 28.3683 4.77438 28.4892L15.7029 31.9541C15.8961 32.0153 16.1036 32.0153 16.2969 31.9541L27.2254 28.4892C27.6069 28.3683 27.877 28.028 27.9081 27.6291L29.985 1.05933C30.0297 0.488093 29.5782 0 29.0053 0H2.99456C2.42163 0 1.97017 0.488093 2.01476 1.05933ZM24.659 9.30302H11.1237L11.5322 13.0699H24.3646L23.5252 23.8086L15.9999 26.1944L8.47465 23.8086L8.03609 18.1982H11.9859V20.9502L16.1055 22.0558L20.2004 20.9502L20.5181 16.5643H7.90836L7.07119 5.8538H24.9286L24.659 9.30302Z" fill="#FC490B"/>
</g>
<defs>
<clipPath id="clip0_103_180">
<rect width="32" height="32" fill="white"/>
</clipPath>
</defs>
</svg>
