<svg width="33" height="32" viewBox="0 0 33 32" fill="none" xmlns="http://www.w3.org/2000/svg">
<g clip-path="url(#clip0_103_286)">
<path d="M26.6411 11.0832C26.308 10.9714 25.9661 10.8677 25.6155 10.7646C25.6767 10.5319 25.7292 10.2999 25.773 10.0758C26.553 6.35598 26.0448 3.35983 24.2998 2.3783C22.6342 1.43115 19.8986 2.42127 17.1461 4.77227C16.883 4.99632 16.6111 5.23695 16.3486 5.48678C16.173 5.32289 15.998 5.15961 15.8223 5.0043C12.9292 2.48143 10.0361 1.42255 8.29984 2.41268C6.63422 3.35983 6.13422 6.17551 6.83547 9.69711C6.90547 10.0415 6.98422 10.3858 7.07234 10.7388C6.66047 10.8505 6.26547 10.9714 5.88859 11.1003C2.50547 12.263 0.339844 14.0793 0.339844 15.965C0.339844 17.9109 2.66297 19.8654 6.18734 21.0537C6.46797 21.1483 6.75734 21.2348 7.05547 21.3208C6.95922 21.6995 6.87109 22.0782 6.80109 22.4404C6.13484 25.9018 6.65234 28.6488 8.31797 29.5959C10.0361 30.5689 12.9205 29.5702 15.7261 27.159C15.9455 26.9693 16.173 26.7631 16.3923 26.5562C16.6817 26.8318 16.9711 27.0902 17.2605 27.3309C19.978 29.6297 22.6698 30.5597 24.3267 29.6125C26.0448 28.6396 26.5973 25.6864 25.8786 22.0868C25.8261 21.8112 25.7561 21.5356 25.6855 21.2428C25.8873 21.1827 26.0886 21.1225 26.2817 21.0617C29.9461 19.8647 32.3398 17.9361 32.3398 15.9644C32.3311 14.0793 30.0955 12.2544 26.6411 11.0832ZM25.8436 19.7972C25.668 19.8574 25.493 19.9089 25.3086 19.9611C24.9055 18.704 24.353 17.3609 23.6867 15.9828C24.3267 14.6311 24.853 13.3138 25.2473 12.0567C25.5717 12.1512 25.8961 12.2464 26.203 12.3495C29.1661 13.3482 30.9723 14.8294 30.9723 15.9748C30.9636 17.1878 29.0173 18.7635 25.8436 19.7972ZM24.5286 22.3545C24.853 23.9474 24.8967 25.377 24.6861 26.5046C24.493 27.512 24.1161 28.1835 23.6342 28.4591C22.6261 29.0361 20.4692 28.2866 18.1461 26.3236C17.883 26.0995 17.6111 25.8589 17.3392 25.6005C18.2423 24.6361 19.1455 23.5079 20.0217 22.2593C21.5648 22.1218 23.0286 21.9064 24.353 21.605C24.423 21.8548 24.4842 22.1046 24.5286 22.3545ZM11.2373 28.356C10.2555 28.7003 9.46609 28.7089 8.99297 28.4419C7.98484 27.8735 7.56422 25.6606 8.13359 22.6988C8.19484 22.3631 8.27359 22.0101 8.37047 21.6572C9.68547 21.9414 11.1323 22.1482 12.6836 22.2685C13.5692 23.4913 14.4986 24.6189 15.428 25.6011C15.2261 25.7907 15.0248 25.9798 14.8142 26.1523C13.578 27.2192 12.333 27.9772 11.2373 28.356ZM6.62609 19.7886C5.06547 19.2632 3.77672 18.583 2.89109 17.8428C2.09359 17.1712 1.69859 16.5169 1.69859 15.9742C1.69859 14.8288 3.43422 13.374 6.33609 12.3753C6.68672 12.255 7.05484 12.1426 7.44047 12.0309C7.84359 13.3138 8.36984 14.6483 9.00109 16.0006C8.36109 17.3695 7.82609 18.7304 7.42297 20.0305C7.14297 19.9519 6.87984 19.8746 6.62609 19.7886ZM8.16859 9.44727C7.56359 6.42473 7.96672 4.15168 8.97547 3.58327C10.0448 2.97188 12.4123 3.84169 14.9111 6.02021C15.0686 6.15771 15.2267 6.30442 15.3936 6.4591C14.4642 7.44063 13.5436 8.56028 12.6667 9.77445C11.1586 9.91195 9.72109 10.1274 8.39734 10.4288C8.30922 10.0844 8.23922 9.75726 8.16859 9.44727ZM21.9773 12.7878C21.6617 12.2537 21.3373 11.7289 21.0042 11.2121C22.0211 11.341 23.003 11.5049 23.9236 11.7117C23.6517 12.5815 23.3011 13.4857 22.898 14.4157C22.6086 13.8902 22.3017 13.339 21.9773 12.7878ZM16.3486 7.40626C16.9798 8.0778 17.6111 8.8273 18.2336 9.63634C17.6111 9.61055 16.9711 9.59337 16.3311 9.59337C15.6998 9.59337 15.0686 9.61055 14.4461 9.63634C15.0686 8.83589 15.7086 8.08639 16.3486 7.40626ZM10.6848 12.805C10.3692 13.3476 10.0711 13.8896 9.78172 14.4323C9.38734 13.5023 9.04547 12.5895 8.76484 11.7111C9.67672 11.5128 10.6498 11.3496 11.6667 11.22C11.3248 11.7289 11.0005 12.263 10.6848 12.805ZM11.693 20.8217C10.6411 20.71 9.65922 20.5547 8.74734 20.357C9.02797 19.4614 9.37859 18.5315 9.78172 17.5843C10.0711 18.127 10.3692 18.669 10.6848 19.2116C11.0092 19.7622 11.3423 20.2963 11.693 20.8217ZM16.3836 24.6361C15.7348 23.9474 15.0861 23.1893 14.4548 22.3717C15.0686 22.3974 15.6911 22.406 16.3311 22.406C16.9798 22.406 17.6286 22.3888 18.2598 22.3631C17.6373 23.1979 17.0061 23.956 16.3836 24.6361ZM22.9067 17.5322C23.3361 18.4879 23.6955 19.4179 23.9848 20.2963C23.0555 20.5031 22.0561 20.675 21.0042 20.7959C21.3373 20.2791 21.6617 19.7457 21.9861 19.1944C22.3105 18.6432 22.6173 18.092 22.9067 17.5322ZM20.7936 18.5315C20.2936 19.3841 19.7767 20.1931 19.2592 20.9684C18.3123 21.0372 17.3305 21.0715 16.3311 21.0715C15.3317 21.0715 14.3673 21.0372 13.438 20.9856C12.8942 20.2109 12.3686 19.3927 11.8773 18.5487C11.3773 17.7046 10.9217 16.8612 10.5098 16.0172C10.9217 15.1732 11.378 14.3212 11.8686 13.4857C12.3598 12.6417 12.8855 11.8327 13.4205 11.0574C14.3761 10.9886 15.3492 10.9542 16.3311 10.9542C17.3217 10.9542 18.2948 10.9886 19.2505 11.066C19.7767 11.832 20.2936 12.6417 20.7936 13.4857C21.2936 14.3383 21.758 15.1818 22.1698 16.0086C21.758 16.8262 21.293 17.6789 20.7936 18.5315ZM23.6167 3.5403C24.6861 4.14309 25.1073 6.59722 24.4323 9.80882C24.3886 10.0157 24.3448 10.2219 24.2923 10.4374C22.9686 10.136 21.5217 9.91195 20.0142 9.77445C19.1373 8.54309 18.2255 7.42406 17.3055 6.4591C17.5511 6.22646 17.7967 6.00302 18.0417 5.79616C20.3992 3.76435 22.6086 2.97188 23.6167 3.5403ZM16.3311 13.1665C17.9092 13.1665 19.1892 14.4237 19.1892 15.9736C19.1892 17.5236 17.9092 18.7807 16.3311 18.7807C14.753 18.7807 13.473 17.5236 13.473 15.9736C13.473 14.4237 14.753 13.1665 16.3311 13.1665Z" fill="#00D8FF"/>
</g>
<defs>
<clipPath id="clip0_103_286">
<rect width="32" height="32" fill="white" transform="translate(0.333496)"/>
</clipPath>
</defs>
</svg>
