<svg width="33" height="32" viewBox="0 0 33 32" fill="none" xmlns="http://www.w3.org/2000/svg">
<path d="M15.9974 7.24798C10.8294 7.41223 9.29341 11.104 8.94141 13.104C9.40006 12.3626 10.8454 10.736 12.9734 10.736C15.4534 10.736 17.3414 13.504 18.4934 14.368C19.893 15.4177 22.7053 16.8037 26.3974 15.68C29.3414 14.784 30.7067 11.6586 31.0054 10.176C29.5814 12.112 27.4214 13.2748 24.7494 11.904C22.9094 10.96 21.5334 7.07201 15.9974 7.24798Z" fill="#07B6D5"/>
<path d="M8.68539 16.032C3.51739 16.1962 1.98139 19.888 1.62939 21.888C2.08806 21.1466 3.53339 19.52 5.66139 19.52C8.14139 19.52 10.0294 22.288 11.1814 23.152C12.581 24.2017 15.3933 25.5877 19.0854 24.464C22.0294 23.568 23.3947 20.4426 23.6934 18.96C22.2694 20.896 20.1094 22.0588 17.4374 20.688C15.5974 19.744 14.2214 15.856 8.68539 16.032Z" fill="#07B6D5"/>
</svg>
