<svg width="33" height="32" viewBox="0 0 33 32" fill="none" xmlns="http://www.w3.org/2000/svg">
<g clip-path="url(#clip0_103_292)">
<path d="M32.2258 4.71352L17.2054 31.5707C17.1349 31.6967 17.0322 31.8018 16.9079 31.8752C16.7835 31.9486 16.6419 31.9878 16.4975 31.9886C16.3531 31.9894 16.2111 31.9519 16.0859 31.8799C15.9607 31.808 15.8569 31.7041 15.785 31.5788L0.470665 4.72169C0.394093 4.58718 0.35734 4.43367 0.364691 4.27906C0.372042 4.12446 0.423195 3.97513 0.512185 3.84849C0.601174 3.72185 0.724333 3.62312 0.867298 3.56381C1.01026 3.50451 1.16714 3.48706 1.31965 3.51352L16.3564 6.19924C16.4543 6.21556 16.5523 6.21556 16.6503 6.19924L31.3605 3.51352C31.5124 3.48638 31.669 3.5029 31.812 3.56115C31.955 3.61941 32.0785 3.71702 32.1682 3.84266C32.258 3.96829 32.3103 4.1168 32.319 4.27094C32.3277 4.42509 32.2926 4.57855 32.2176 4.71352H32.2258Z" fill="url(#paint0_linear_103_292)"/>
<path d="M23.5241 -0.0130157L12.4057 2.16658C12.3175 2.18441 12.2376 2.2309 12.1786 2.29882C12.1195 2.36673 12.0846 2.45225 12.0792 2.54209L11.3934 14.0849C11.3893 14.1484 11.4 14.2119 11.4248 14.2704C11.4495 14.3289 11.4876 14.3809 11.536 14.4221C11.5843 14.4633 11.6416 14.4927 11.7033 14.5078C11.765 14.523 11.8294 14.5235 11.8914 14.5094L14.9934 13.7911C15.0609 13.7754 15.1313 13.7772 15.1979 13.7963C15.2646 13.8154 15.3252 13.8511 15.3742 13.9001C15.4232 13.9491 15.459 14.0097 15.478 14.0764C15.4971 14.143 15.4989 14.2134 15.4832 14.2809L14.5608 18.7707C14.545 18.8401 14.5477 18.9125 14.5686 18.9807C14.5895 19.0488 14.6278 19.1102 14.6798 19.159C14.7318 19.2077 14.7957 19.2419 14.865 19.2583C14.9344 19.2746 15.0068 19.2726 15.0751 19.2523L16.9853 18.6645C17.0533 18.643 17.1257 18.6397 17.1954 18.6549C17.2651 18.6701 17.3296 18.7034 17.3825 18.7513C17.4353 18.7992 17.4747 18.8601 17.4967 18.9279C17.5186 18.9958 17.5225 19.0682 17.5077 19.138L16.0465 26.2237C15.9567 26.6645 16.5363 26.9013 16.7812 26.5258L16.9526 26.2727L26.0138 8.19923C26.0498 8.13041 26.0654 8.05275 26.0588 7.97539C26.0521 7.89802 26.0236 7.82414 25.9764 7.76244C25.9293 7.70073 25.8655 7.65375 25.7926 7.62701C25.7197 7.60027 25.6407 7.59488 25.5649 7.61147L22.3812 8.23188C22.3129 8.2443 22.2425 8.23909 22.1768 8.21674C22.1111 8.19439 22.0521 8.15563 22.0055 8.10415C21.9589 8.05266 21.9263 7.99013 21.9106 7.92249C21.8949 7.85485 21.8967 7.78433 21.9159 7.7176L23.9894 0.509433C24.071 0.215556 23.8261 -0.0619955 23.5241 -0.00485261V-0.0130157Z" fill="url(#paint1_linear_103_292)"/>
</g>
<defs>
<linearGradient id="paint0_linear_103_292" x1="0.0951554" y1="2.55026" x2="18.789" y2="27.938" gradientUnits="userSpaceOnUse">
<stop stop-color="#41D1FF"/>
<stop offset="1" stop-color="#BD34FE"/>
</linearGradient>
<linearGradient id="paint1_linear_103_292" x1="15.4996" y1="0.574739" x2="18.8792" y2="23.7747" gradientUnits="userSpaceOnUse">
<stop stop-color="#FFEA83"/>
<stop offset="0.1" stop-color="#FFDD35"/>
<stop offset="1" stop-color="#FFA800"/>
</linearGradient>
<clipPath id="clip0_103_292">
<rect width="32" height="32" fill="white" transform="translate(0.333496)"/>
</clipPath>
</defs>
</svg>
